# xmcd
#
# Track frame offsets:
#	150
#	18147
#	35915
#	53237
#	68167
#	83677
#	101045
#	119360
#	135947
#	149277
#	165132
#	180255
#	195702
#	211375
#
# Disc length: 3065 seconds
#
# Revision: 1
# Processed by: cddbd v1.4b41PL2 Copyright (c) Steve Scherf et al.
# Submitted via: audiograbber 1.80
#
DISCID=b50bf70e
DTITLE=Troy Cassar - Daley - Big River
DYEAR=1900
DGENRE=
TTITLE0=They Don't Make 'Em Like That Anymore
TTITLE1=Big River Country
TTITLE2=I Wanna Go Back
TTITLE3=All Over Town
TTITLE4=The Other Side Of Lonely
TTITLE5=Trains
TTITLE6=It's Never Too Late
TTITLE7=Time To Say Good-Bye
TTITLE8=Under Your Spell Again
TTITLE9=I Want To Walk That Road With You
TTITLE10=V8 Town
TTITLE11=One Big Land
TTITLE12=When A Small Town Dies
TTITLE13=The Droving Days
EXTD=
EXTT0=
EXTT1=
EXTT2=
EXTT3=
EXTT4=
EXTT5=
EXTT6=
EXTT7=
EXTT8=
EXTT9=
EXTT10=
EXTT11=
EXTT12=
EXTT13=
PLAYORDER=
